<svg xmlns="http://www.w3.org/2000/svg" viewBox="0 0 1920 1080">
  <defs>
    <linearGradient id="bg4" x1="0" y1="0" x2="1" y2="1" gradientUnits="objectBoundingBox">
      <stop offset="0%" stop-color="#f5f3ff"/>
      <stop offset="55%" stop-color="#ddd6fe"/>
      <stop offset="100%" stop-color="#3b0764"/>
    </linearGradient>
    <linearGradient id="fl4" x1="0" y1="0" x2="0" y2="1" gradientUnits="objectBoundingBox">
      <stop offset="0%" stop-color="#4c1d95" stop-opacity="0.55"/>
      <stop offset="100%" stop-color="#1e0040" stop-opacity="0.8"/>
    </linearGradient>
    <radialGradient id="sun4" cx="80%" cy="10%" r="50%">
      <stop offset="0%" stop-color="#fef9c3" stop-opacity="0.45"/>
      <stop offset="100%" stop-color="#fef9c3" stop-opacity="0"/>
    </radialGradient>
  </defs>

  <rect width="1920" height="1080" fill="url(#bg4)"/>
  <rect y="790" width="1920" height="290" fill="url(#fl4)"/>
  <line x1="0" y1="790" x2="1920" y2="790" stroke="#6d28d9" stroke-width="3" opacity="0.4"/>

  <!-- Sun glow from top-right windows -->
  <rect width="1920" height="1080" fill="url(#sun4)"/>

  <!-- Wall panel line -->
  <line x1="0" y1="660" x2="1920" y2="660" stroke="#7c3aed" stroke-width="2" opacity="0.15"/>

  <!-- Perspective: rows of chairs/desks going back -->
  <!-- Back wall with windows -->
  <!-- 3 large windows top-right -->
  <rect x="1300" y="50" width="180" height="300" rx="10" fill="#e9d5ff" opacity="0.45"/>
  <rect x="1300" y="50" width="180" height="300" rx="10" fill="none" stroke="#7c3aed" stroke-width="5"/>
  <line x1="1390" y1="50" x2="1390" y2="350" stroke="#7c3aed" stroke-width="3"/>
  <line x1="1300" y1="200" x2="1480" y2="200" stroke="#7c3aed" stroke-width="3"/>

  <rect x="1510" y="50" width="180" height="300" rx="10" fill="#e9d5ff" opacity="0.45"/>
  <rect x="1510" y="50" width="180" height="300" rx="10" fill="none" stroke="#7c3aed" stroke-width="5"/>
  <line x1="1600" y1="50" x2="1600" y2="350" stroke="#7c3aed" stroke-width="3"/>
  <line x1="1510" y1="200" x2="1690" y2="200" stroke="#7c3aed" stroke-width="3"/>

  <rect x="1720" y="50" width="180" height="300" rx="10" fill="#e9d5ff" opacity="0.45"/>
  <rect x="1720" y="50" width="180" height="300" rx="10" fill="none" stroke="#7c3aed" stroke-width="5"/>
  <line x1="1810" y1="50" x2="1810" y2="350" stroke="#7c3aed" stroke-width="3"/>
  <line x1="1720" y1="200" x2="1900" y2="200" stroke="#7c3aed" stroke-width="3"/>

  <!-- Left windows -->
  <rect x="30" y="80" width="160" height="260" rx="8" fill="#e9d5ff" opacity="0.4"/>
  <rect x="30" y="80" width="160" height="260" rx="8" fill="none" stroke="#7c3aed" stroke-width="5"/>
  <line x1="110" y1="80" x2="110" y2="340" stroke="#7c3aed" stroke-width="3"/>
  <line x1="30" y1="210" x2="190" y2="210" stroke="#7c3aed" stroke-width="3"/>
  <rect x="30" y="380" width="160" height="240" rx="8" fill="#e9d5ff" opacity="0.38"/>
  <rect x="30" y="380" width="160" height="240" rx="8" fill="none" stroke="#7c3aed" stroke-width="5"/>
  <line x1="110" y1="380" x2="110" y2="620" stroke="#7c3aed" stroke-width="3"/>
  <line x1="30" y1="500" x2="190" y2="500" stroke="#7c3aed" stroke-width="3"/>

  <!-- Blackboard (left side) -->
  <rect x="200" y="60" width="780" height="460" rx="8" fill="#4c1d95"/>
  <rect x="212" y="72" width="756" height="436" rx="6" fill="#1e0040"/>
  <text x="280" y="170" font-family="Georgia,serif" font-size="46" fill="#c4b5fd" opacity="0.88" font-weight="bold">Géographie</text>
  <line x1="280" y1="186" x2="760" y2="186" stroke="#c4b5fd" stroke-width="3" opacity="0.65"/>
  <text x="250" y="250" font-family="Georgia,serif" font-size="30" fill="#ddd6fe" opacity="0.72">Les continents du monde :</text>
  <text x="270" y="300" font-family="Georgia,serif" font-size="26" fill="#e9d5ff" opacity="0.65">• Afrique    • Asie    • Europe</text>
  <text x="270" y="345" font-family="Georgia,serif" font-size="26" fill="#e9d5ff" opacity="0.62">• Amérique  • Océanie • Antarctique</text>
  <!-- Simple continent outlines (abstract) -->
  <ellipse cx="730" cy="340" rx="95" ry="100" fill="none" stroke="#a78bfa" stroke-width="2.5" opacity="0.4"/>
  <path d="M690,290 C710,270 760,280 780,310 C800,340 790,380 770,400 C740,420 700,410 685,385 C668,355 670,315 690,290 Z" fill="#a78bfa" opacity="0.15"/>
  <text x="700" y="350" font-family="sans-serif" font-size="18" fill="#c4b5fd" opacity="0.6" text-anchor="middle">Afrique</text>
  <rect x="212" y="496" width="756" height="12" rx="2" fill="#4c1d95"/>
  <rect x="380" y="499" width="24" height="8" rx="4" fill="#f8fafc" opacity="0.8"/>
  <rect x="410" y="500" width="18" height="7" rx="3" fill="#e9d5ff" opacity="0.75"/>

  <!-- Teacher at board -->
  <g transform="translate(1050,180)">
    <ellipse cx="0" cy="0" rx="36" ry="42" fill="#1a0026"/>
    <ellipse cx="0" cy="-28" rx="38" ry="20" fill="#0f0016"/>
    <rect x="-13" y="40" width="26" height="20" fill="#1a0026"/>
    <path d="M-42,60 C-45,195 -40,340 -36,400 L36,400 C40,340 45,195 42,60 Z" fill="#3b0764"/>
    <path d="M-42,110 C-100,100 -195,92 -248,88" stroke="#1a0026" stroke-width="20" stroke-linecap="round" fill="none"/>
    <line x1="-42" y1="108" x2="-282" y2="90" stroke="#6d28d9" stroke-width="5" stroke-linecap="round"/>
    <path d="M42,110 C65,145 68,200 64,238" stroke="#1a0026" stroke-width="18" stroke-linecap="round" fill="none"/>
    <rect x="-28" y="398" width="20" height="130" rx="4" fill="#1a0026"/>
    <rect x="8" y="398" width="20" height="130" rx="4" fill="#1a0026"/>
    <ellipse cx="-18" cy="534" rx="18" ry="8" fill="#0f0016"/>
    <ellipse cx="18" cy="534" rx="18" ry="8" fill="#0f0016"/>
  </g>

  <!-- Student rows (all seated) -->
  <!-- Row back -->
  <g transform="translate(250,810) scale(0.58)"><rect x="-65" y="-12" width="130" height="13" rx="3" fill="#4c1d95"/><rect x="-50" y="1" width="10" height="50" fill="#3b0764"/><rect x="40" y="1" width="10" height="50" fill="#3b0764"/><ellipse cx="0" cy="-88" rx="28" ry="32" fill="#1a0026"/><ellipse cx="0" cy="-108" rx="30" ry="16" fill="#0f0016"/><path d="M-24,-56 C-26,-16 -24,0 -24,0 L24,0 C24,0 26,-16 24,-56 Z" fill="#1a0026"/><path d="M-24,-26 L-54,-14 L-54,-6 L-24,-18 Z" fill="#1a0026"/><path d="M24,-26 L54,-14 L54,-6 L24,-18 Z" fill="#1a0026"/></g>
  <g transform="translate(480,810) scale(0.58)"><rect x="-65" y="-12" width="130" height="13" rx="3" fill="#4c1d95"/><rect x="-50" y="1" width="10" height="50" fill="#3b0764"/><rect x="40" y="1" width="10" height="50" fill="#3b0764"/><ellipse cx="0" cy="-88" rx="28" ry="32" fill="#1a0026"/><ellipse cx="0" cy="-108" rx="30" ry="16" fill="#0f0016"/><path d="M-24,-56 C-26,-16 -24,0 -24,0 L24,0 C24,0 26,-16 24,-56 Z" fill="#1a0026"/><path d="M-24,-26 L-54,-14 L-54,-6 L-24,-18 Z" fill="#1a0026"/><path d="M24,-26 L54,-14 L54,-6 L24,-18 Z" fill="#1a0026"/></g>
  <g transform="translate(710,808) scale(0.58)"><rect x="-65" y="-12" width="130" height="13" rx="3" fill="#4c1d95"/><rect x="-50" y="1" width="10" height="50" fill="#3b0764"/><rect x="40" y="1" width="10" height="50" fill="#3b0764"/><ellipse cx="0" cy="-88" rx="28" ry="32" fill="#1a0026"/><ellipse cx="0" cy="-108" rx="30" ry="16" fill="#0f0016"/><path d="M-24,-56 C-26,-16 -24,0 -24,0 L24,0 C24,0 26,-16 24,-56 Z" fill="#1a0026"/><path d="M-24,-26 L-54,-14 L-54,-6 L-24,-18 Z" fill="#1a0026"/><path d="M24,-26 L54,-14 L54,-6 L24,-18 Z" fill="#1a0026"/></g>
  <g transform="translate(940,810) scale(0.58)"><rect x="-65" y="-12" width="130" height="13" rx="3" fill="#4c1d95"/><rect x="-50" y="1" width="10" height="50" fill="#3b0764"/><rect x="40" y="1" width="10" height="50" fill="#3b0764"/><ellipse cx="0" cy="-88" rx="28" ry="32" fill="#1a0026"/><ellipse cx="0" cy="-108" rx="30" ry="16" fill="#0f0016"/><path d="M-24,-56 C-26,-16 -24,0 -24,0 L24,0 C24,0 26,-16 24,-56 Z" fill="#1a0026"/><path d="M-24,-26 L-54,-14 L-54,-6 L-24,-18 Z" fill="#1a0026"/><path d="M24,-26 L54,-14 L54,-6 L24,-18 Z" fill="#1a0026"/></g>
  <!-- Row front -->
  <g transform="translate(200,950) scale(0.78)"><rect x="-65" y="-12" width="130" height="13" rx="3" fill="#4c1d95"/><rect x="-50" y="1" width="10" height="50" fill="#3b0764"/><rect x="40" y="1" width="10" height="50" fill="#3b0764"/><ellipse cx="0" cy="-88" rx="28" ry="32" fill="#1a0026"/><ellipse cx="0" cy="-108" rx="30" ry="16" fill="#0f0016"/><path d="M-24,-56 C-26,-16 -24,0 -24,0 L24,0 C24,0 26,-16 24,-56 Z" fill="#1a0026"/><path d="M-24,-26 L-54,-14 L-54,-6 L-24,-18 Z" fill="#1a0026"/><path d="M24,-26 L54,-14 L54,-6 L24,-18 Z" fill="#1a0026"/></g>
  <g transform="translate(500,950) scale(0.78)"><rect x="-65" y="-12" width="130" height="13" rx="3" fill="#4c1d95"/><rect x="-50" y="1" width="10" height="50" fill="#3b0764"/><rect x="40" y="1" width="10" height="50" fill="#3b0764"/><ellipse cx="0" cy="-88" rx="28" ry="32" fill="#1a0026"/><ellipse cx="0" cy="-108" rx="30" ry="16" fill="#0f0016"/><path d="M-24,-56 C-26,-16 -24,0 -24,0 L24,0 C24,0 26,-16 24,-56 Z" fill="#1a0026"/><path d="M-24,-26 L-54,-14 L-54,-6 L-24,-18 Z" fill="#1a0026"/><path d="M24,-26 L54,-14 L54,-6 L24,-18 Z" fill="#1a0026"/></g>
  <g transform="translate(800,950) scale(0.78)"><rect x="-65" y="-12" width="130" height="13" rx="3" fill="#4c1d95"/><rect x="-50" y="1" width="10" height="50" fill="#3b0764"/><rect x="40" y="1" width="10" height="50" fill="#3b0764"/><ellipse cx="0" cy="-88" rx="28" ry="32" fill="#1a0026"/><ellipse cx="0" cy="-108" rx="30" ry="16" fill="#0f0016"/><path d="M-24,-56 C-26,-16 -24,0 -24,0 L24,0 C24,0 26,-16 24,-56 Z" fill="#1a0026"/><path d="M-24,-26 L-54,-14 L-54,-6 L-24,-18 Z" fill="#1a0026"/><path d="M24,-26 L54,-14 L54,-6 L24,-18 Z" fill="#1a0026"/></g>
  <g transform="translate(1100,950) scale(0.78)"><rect x="-65" y="-12" width="130" height="13" rx="3" fill="#4c1d95"/><rect x="-50" y="1" width="10" height="50" fill="#3b0764"/><rect x="40" y="1" width="10" height="50" fill="#3b0764"/><ellipse cx="0" cy="-88" rx="28" ry="32" fill="#1a0026"/><ellipse cx="0" cy="-108" rx="30" ry="16" fill="#0f0016"/><path d="M-24,-56 C-26,-16 -24,0 -24,0 L24,0 C24,0 26,-16 24,-56 Z" fill="#1a0026"/><path d="M-24,-26 L-54,-14 L-54,-6 L-24,-18 Z" fill="#1a0026"/><path d="M24,-26 L54,-14 L54,-6 L24,-18 Z" fill="#1a0026"/></g>

  <!-- Decorative circles -->
  <circle cx="80" cy="80" r="60" fill="#7c3aed" opacity="0.06"/>
  <circle cx="1840" cy="900" r="80" fill="#7c3aed" opacity="0.05"/>
</svg>
